<?xml version="1.0" standalone="no"?><!DOCTYPE svg PUBLIC "-//W3C//DTD SVG 1.1//EN" "http://www.w3.org/Graphics/SVG/1.1/DTD/svg11.dtd"><svg t="1546262594330" class="icon" style="" viewBox="0 0 1024 1024" version="1.1" xmlns="http://www.w3.org/2000/svg" p-id="16352" xmlns:xlink="http://www.w3.org/1999/xlink" width="200" height="200"><defs><style type="text/css"></style></defs><path d="M793.858 232.122L742.33 108.698c-17.243-45.917-46.087-54.183-80.238-42.204L256.98 232.122h536.878z" p-id="16353"></path><path d="M976.737 695.382H755.89c-45.157 0-81.763-36.607-81.763-81.764v-98.117c0-45.157 36.606-81.763 81.763-81.763h220.786V232.122c0-68.214-45.147-130.048-112.87-130.048l16.5 87.845c9.569 3.188 19.383 13.004 19.383 26.01l0.146 38.77c0 13.004-9.962 19.629-22.72 19.629H134.122c-12.76 0-19.139-3.19-19.139-19.63v-38.771c0-13.005 6.379-19.63 19.14-19.63h74.103l167.345-94.223h-199.49c-67.478 0-128.822 65.024-128.822 133.238v600.516c0 68.214 54.964 126.612 122.197 126.612h678.705c67.722 0 128.576-61.834 128.576-130.048v-129.4l-0.001-7.61z" p-id="16354"></path><path d="M800.047 480.834c-28.9 0-52.33 23.428-52.33 52.328v62.794c0 28.9 23.43 52.328 52.33 52.328H923.86c28.9 0 52.33-23.428 52.33-52.328v-62.794c0-28.9-23.43-52.328-52.33-52.328H800.047z m9.177 116.416c-18.053 0-32.689-14.636-32.689-32.69s14.636-32.69 32.689-32.69c18.055 0 32.69 14.636 32.69 32.69s-14.635 32.69-32.69 32.69z" p-id="16355"></path></svg>