<?xml version="1.0" standalone="no"?><!DOCTYPE svg PUBLIC "-//W3C//DTD SVG 1.1//EN" "http://www.w3.org/Graphics/SVG/1.1/DTD/svg11.dtd"><svg t="1546242345547" class="icon" style="" viewBox="0 0 1170 1024" version="1.1" xmlns="http://www.w3.org/2000/svg" p-id="1675" xmlns:xlink="http://www.w3.org/1999/xlink" width="228.515625" height="200"><defs><style type="text/css"></style></defs><path d="M512 692.571429q0-30.857143-4.285714-57.428572t-14-51.428571-29.142857-39.142857-46.285715-14.285715q-36.571429 36.571429-89.142857 36.571429t-89.142857-36.571429q-26.857143 0-46.285714 14.285715t-29.142857 39.142857-14 51.428571T146.285714 692.571429q0 31.428571 18 53.428571T207.428571 768h243.428572q25.142857 0 43.142857-22T512 692.571429zM438.857143 438.857143q0-45.714286-32-77.714286t-77.714286-32-77.714286 32-32 77.714286 32 77.714286 77.714286 32 77.714286-32 32-77.714286z m585.142857 274.285714v-36.571428q0-8-5.142857-13.142858t-13.142857-5.142857h-402.285715q-8 0-13.142857 5.142857t-5.142857 13.142858v36.571428q0 8 5.142857 13.142857t13.142857 5.142857h402.285715q8 0 13.142857-5.142857t5.142857-13.142857z m-219.428571-146.285714v-36.571429q0-8-5.142858-13.142857t-13.142857-5.142857h-182.857143q-8 0-13.142857 5.142857t-5.142857 13.142857v36.571429q0 8 5.142857 13.142857t13.142857 5.142857h182.857143q8 0 13.142857-5.142857t5.142858-13.142857z m219.428571 0v-36.571429q0-8-5.142857-13.142857t-13.142857-5.142857h-109.714286q-8 0-13.142857 5.142857t-5.142857 13.142857v36.571429q0 8 5.142857 13.142857t13.142857 5.142857h109.714286q8 0 13.142857-5.142857t5.142857-13.142857z m0-146.285714v-36.571429q0-8-5.142857-13.142857t-13.142857-5.142857h-402.285715q-8 0-13.142857 5.142857t-5.142857 13.142857v36.571429q0 8 5.142857 13.142857t13.142857 5.142857h402.285715q8 0 13.142857-5.142857t5.142857-13.142857zM73.142857 219.428571h1024v-54.857142q0-8-5.142857-13.142858t-13.142857-5.142857H91.428571q-8 0-13.142857 5.142857t-5.142857 13.142858v54.857142z m1097.142857-54.857142v694.857142q0 37.714286-26.857143 64.571429t-64.571428 26.857143H91.428571q-37.714286 0-64.571428-26.857143T0 859.428571V164.571429q0-37.714286 26.857143-64.571429t64.571428-26.857143h987.428572q37.714286 0 64.571428 26.857143t26.857143 64.571429z" p-id="1676"></path></svg>